<svg width="50" height="50" viewBox="0 0 50 50" fill="none" xmlns="http://www.w3.org/2000/svg">
<path d="M25 25C29.6024 25 33.3334 21.269 33.3334 16.6666C33.3334 12.0643 29.6024 8.33331 25 8.33331C20.3976 8.33331 16.6667 12.0643 16.6667 16.6666C16.6667 21.269 20.3976 25 25 25Z" fill="#77B9D7"/>
<path d="M41.6666 39.5833V41.6666C41.6666 42.2192 41.4472 42.7491 41.0565 43.1398C40.6658 43.5305 40.1358 43.75 39.5833 43.75H10.4166C9.86411 43.75 9.33421 43.5305 8.94351 43.1398C8.55281 42.7491 8.33331 42.2192 8.33331 41.6666V39.5833C8.33331 36.2681 9.65027 33.0887 11.9945 30.7445C14.3387 28.4003 17.5181 27.0833 20.8333 27.0833H29.1666C32.4819 27.0833 35.6613 28.4003 38.0055 30.7445C40.3497 33.0887 41.6666 36.2681 41.6666 39.5833Z" fill="#77B9D7"/>
</svg>
